<svg version="1.2" xmlns="http://www.w3.org/2000/svg" viewBox="0 0 64 64" width="64" height="64">
	<style>
		.s0 { fill: none;stroke: #ffffff;stroke-linecap: round;stroke-linejoin: round;stroke-width: 5.3 } 
	</style>
	<path class="s0" d="m32 27.09c0-6.88 0-10.32-1.34-12.94-1.18-2.32-3.05-4.19-5.37-5.37-2.62-1.34-6.06-1.34-12.94-1.34h-3.07c-1.72 0-2.58 0-3.23 0.33-0.58 0.3-1.05 0.77-1.35 1.35-0.33 0.65-0.33 1.51-0.33 3.23v33.16c0 1.72 0 2.58 0.33 3.23 0.3 0.58 0.77 1.05 1.35 1.35 0.65 0.33 1.51 0.33 3.23 0.33h9.05c1.66 0 2.49 0 3.29 0.14q1.07 0.19 2.07 0.63c0.74 0.33 1.43 0.78 2.81 1.71l5.5 3.66m0-29.47c0-6.88 0-10.32 1.34-12.94 1.18-2.32 3.05-4.19 5.36-5.37 2.63-1.34 6.07-1.34 12.95-1.34h3.07c1.72 0 2.58 0 3.23 0.33 0.58 0.3 1.05 0.77 1.35 1.35 0.33 0.65 0.33 1.51 0.33 3.23v33.16c0 1.72 0 2.58-0.33 3.23-0.3 0.58-0.77 1.05-1.35 1.35-0.65 0.33-1.51 0.33-3.23 0.33h-9.05c-1.66 0-2.49 0-3.29 0.14q-1.07 0.19-2.07 0.63c-0.74 0.33-1.43 0.78-2.81 1.71l-5.5 3.66m0-29.47v29.47"/>
</svg>